Coordinates
version=1
nRows=17
nColumns=24
inDegrees=yes

Units are S.I. units (second, meters, Newtons, ...)
Angles are in degrees.

endheader
time	pelvis_tilt	pelvis_list	pelvis_rotation	pelvis_tx	pelvis_ty	pelvis_tz	hip_flexion_r	hip_adduction_r	hip_rotation_r	knee_angle_r	ankle_angle_r	subtalar_angle_r	mtp_angle_r	hip_flexion_l	hip_adduction_l	hip_rotation_l	knee_angle_l	ankle_angle_l	subtalar_angle_l	mtp_angle_l	lumbar_extension	lumbar_bending	lumbar_rotation
      3.66500000	     -2.27432963	     -2.37799422	     -8.57267292	     -0.83261593	      0.90737710	      0.25346831	    -10.14173078	      8.14474760	      8.48538463	    -22.27641391	     25.22326806	     -5.33159215	      0.00000000	     30.66313231	     -2.28226591	     -5.48954189	     -9.30549261	     10.72585333	     -9.49764561	      0.00000000	    -11.62863439	      0.86083346	      2.40712159
      3.67000000	     -2.28294663	     -2.22928856	     -8.51899212	     -0.82454714	      0.90612897	      0.25337416	    -10.27181857	      7.84018067	      8.01753451	    -22.96007304	     25.15762601	     -4.53842102	      0.00000000	     30.92014381	     -2.02455854	     -5.38338473	    -10.36690001	     10.41684572	     -9.89006627	      0.00000000	    -11.52700168	      0.64898875	      2.30198824
      3.67500000	     -2.29631818	     -2.03749805	     -8.44878537	     -0.81642987	      0.90494186	      0.25324593	    -10.34785730	      7.48468679	      7.49060092	    -23.71677276	     25.03471014	     -3.70228598	      0.00000000	     31.17463263	     -1.71249466	     -5.21688211	    -11.45359406	      9.97367803	    -10.34874177	      0.00000000	    -11.40970904	      0.38719557	      2.17043848
      3.68000000	     -2.31721895	     -1.79296233	     -8.35442099	     -0.80827610	      0.90382837	      0.25308973	    -10.36335672	      7.07357284	      6.91280640	    -24.54831054	     24.83859744	     -2.84979307	      0.00000000	     31.43534213	     -1.33574266	     -5.01955684	    -12.55435267	      9.39431432	    -10.85521621	      0.00000000	    -11.27314706	      0.06506883	      2.00205697
      3.68500000	     -2.34968805	     -1.49253438	     -8.23659848	     -0.80011791	      0.90280684	      0.25290635	    -10.30577433	      6.60218699	      6.27844868	    -25.46442453	     24.55826020	     -1.97345198	      0.00000000	     31.71013687	     -0.89430023	     -4.79852610	    -13.66019121	      8.68368086	    -11.38560504	      0.00000000	    -11.11746289	     -0.32066353	      1.79745363
      3.69000000	     -2.38699394	     -1.15795541	     -8.12006852	     -0.79201349	      0.90186799	      0.25267391	    -10.15877740	      6.07615009	      5.56476698	    -26.50725538	     24.21481695	     -1.02387130	      0.00000000	     31.99422157	     -0.40724045	     -4.47748344	    -14.77587707	      7.88537430	    -12.03981491	      0.00000000	    -10.96635154	     -0.74383395	      1.56054521
      3.69500000	     -2.43984479	     -0.76497965	     -7.95986333	     -0.78391410	      0.90105959	      0.25238832	     -9.93889613	      5.49183963	      4.81968876	    -27.62178106	     23.74578543	     -0.08018996	      0.00000000	     32.30715815	      0.15337037	     -4.17862213	    -15.89901429	      6.99514911	    -12.66655405	      0.00000000	    -10.79330126	     -1.23131012	      1.30343464
      3.70000000	     -2.50842955	     -0.30779356	     -7.78545835	     -0.77580001	      0.90033832	      0.25211926	     -9.63580280	      4.83816533	      4.04784175	    -28.83164365	     23.17205631	      0.84280467	      0.00000000	     32.65070850	      0.77775805	     -3.89849302	    -17.04878793	      6.12576748	    -13.27650235	      0.00000000	    -10.59477702	     -1.79933131	      1.00525946
      3.70500000	     -2.58368198	      0.18495654	     -7.60201976	     -0.76770175	      0.89971435	      0.25184906	     -9.25807715	      4.13963099	      3.26915186	    -30.14044398	     22.47542611	      1.75219763	      0.00000000	     33.01582022	      1.44109971	     -3.61788924	    -18.23320069	      5.29222055	    -13.88771541	      0.00000000	    -10.38901104	     -2.41176344	      0.68813812
      3.71000000	     -2.66289158	      0.69694144	     -7.41373316	     -0.75961032	      0.89918978	      0.25158540	     -8.81435774	      3.41235849	      2.49923834	    -31.53921686	     21.63870240	      2.63067970	      0.00000000	     33.38828533	      2.12709950	     -3.33723100	    -19.43697137	      4.51965112	    -14.50867545	      0.00000000	    -10.18401449	     -3.05069951	      0.36097077
      3.71500000	     -2.73648677	      1.21829407	     -7.22441660	     -0.75151497	      0.89874931	      0.25134555	     -8.31663432	      2.66658564	      1.75561346	    -33.02697086	     20.66097489	      3.46504685	      0.00000000	     33.75725622	      2.82091804	     -3.08306497	    -20.66359206	      3.84971460	    -15.10598846	      0.00000000	     -9.98757971	     -3.70683203	      0.03201200
      3.72000000	     -2.79713278	      1.74348574	     -7.04510266	     -0.74339985	      0.89837979	      0.25114771	     -7.77507965	      1.90710449	      1.05217963	    -34.59781210	     19.54295742	      4.22634363	      0.00000000	     34.10243900	      3.51248147	     -2.85941568	    -21.89361641	      3.31158752	    -15.68126482	      0.00000000	     -9.80625245	     -4.37411529	     -0.30862562
      3.72500000	     -2.84446508	      2.25276356	     -6.86887008	     -0.73527988	      0.89809807	      0.25095040	     -7.19315357	      1.15243220	      0.39267141	    -36.24052269	     18.26469164	      4.93106547	      0.00000000	     34.40407879	      4.19016926	     -2.65613813	    -23.08548856	      2.87083170	    -16.25101947	      0.00000000	     -9.64731240	     -5.02507019	     -0.62808266
      3.73000000	     -2.87114923	      2.75406270	     -6.69541827	     -0.72708222	      0.89793746	      0.25081214	     -6.59475192	      0.39990644	     -0.22060743	    -37.92194577	     16.79678637	      5.53900461	      0.00000000	     34.63443193	      4.85096288	     -2.51238588	    -24.20914482	      2.55906180	    -16.75200370	      0.00000000	     -9.50350564	     -5.67317726	     -0.94119619
      3.73500000	     -2.87856998	      3.22068856	     -6.54354846	     -0.71898475	      0.89781192	      0.25064311	     -5.94732882	     -0.33125189	     -0.77110921	    -39.68659809	     15.22909773	      6.06568479	      0.00000000	     34.80607881	      5.48197572	     -2.35941483	    -25.26870603	      2.35272431	    -17.29974886	      0.00000000	     -9.41010822	     -6.27873978	     -1.21067929
      3.74000000	     -2.88627170	      3.66326188	     -6.41005267	     -0.71094488	      0.89771716	      0.25035928	     -5.23795172	     -1.06301818	     -1.27213676	    -41.51347898	     13.57421751	      6.55843100	      0.00000000	     34.92655976	      6.10030725	     -2.19485524	    -26.23892807	      2.20917667	    -17.90312828	      0.00000000	     -9.33119628	     -6.82620672	     -1.44883581
      3.74500000	     -2.86166535	      4.11147101	     -6.26677054	     -0.70289431	      0.89773041	      0.25014609	     -4.52915813	     -1.78649520	     -1.70648922	    -43.34908360	     11.79243218	      6.85358524	      0.00000000	     34.95225267	      6.71111904	     -2.12389053	    -27.11042807	      2.26492751	    -18.31354286	      0.00000000	     -9.29523738	     -7.39520803	     -1.71358674
